<svg xmlns="http://www.w3.org/2000/svg" xmlns:xlink="http://www.w3.org/1999/xlink" width="200" zoomAndPan="magnify" viewBox="0 0 150 74.999997" height="100" preserveAspectRatio="xMidYMid meet" version="1.0"><defs><clipPath id="9e976014b8"><path d="M 0.855469 7.203125 L 149.226562 7.203125 L 149.226562 67.796875 L 0.855469 67.796875 Z M 0.855469 7.203125 " clip-rule="nonzero"/></clipPath><clipPath id="5ef5e5d320"><path d="M 75.242188 7.339844 L 75.242188 8.773438 C -21.300781 8.859375 -21.300781 66.226562 75.242188 66.144531 C 161.933594 65.972656 162.945312 9.015625 75.242188 8.773438 L 75.242188 7.339844 C 174.65625 7.339844 172.46875 67.664062 75.414062 67.664062 C -23.746094 68.003906 -23.832031 7.339844 75.242188 7.339844 " clip-rule="nonzero"/></clipPath><clipPath id="62bdb1bfde"><path d="M 124.59375 22.777344 L 129.40625 22.777344 L 129.40625 29.289062 L 124.59375 29.289062 Z M 124.59375 22.777344 " clip-rule="nonzero"/></clipPath><clipPath id="2fe4b04918"><path d="M 127.136719 22.855469 C 126.300781 26.820312 128.988281 24.460938 129.242188 26.738281 C 129.328125 29.011719 126.382812 30.191406 125.121094 28.34375 C 124.523438 26.820312 124.777344 25.8125 127.136719 22.871094 " clip-rule="nonzero"/></clipPath><clipPath id="90ad53d60e"><path d="M 49.558594 22 L 56.070312 22 L 56.070312 27.871094 L 49.558594 27.871094 Z M 49.558594 22 " clip-rule="nonzero"/></clipPath><clipPath id="beda236933"><path d="M 55.1875 22.1875 L 56.027344 23.625 C 56.109375 23.792969 55.941406 24.132812 55.683594 24.292969 L 51.304688 27.40625 C 50.964844 27.660156 50.636719 27.660156 50.550781 27.492188 L 49.628906 26.054688 Z M 55.1875 22.1875 " clip-rule="nonzero"/></clipPath><clipPath id="f74f35a0a9"><path d="M 49 21.359375 L 55.21875 21.359375 L 55.21875 26.175781 L 49 26.175781 Z M 49 21.359375 " clip-rule="nonzero"/></clipPath><clipPath id="9fc4a6e4f9"><path d="M 49.042969 25.472656 L 49.714844 24.460938 L 53.679688 21.59375 L 54.773438 21.421875 L 55.199219 22.019531 L 49.46875 26.054688 Z M 49.042969 25.472656 " clip-rule="nonzero"/></clipPath><clipPath id="1e390afc79"><path d="M 18.695312 16.546875 L 53.523438 16.546875 L 53.523438 53 L 18.695312 53 Z M 18.695312 16.546875 " clip-rule="nonzero"/></clipPath><clipPath id="01bb7b6503"><path d="M 19.890625 30.445312 L 26.628906 30.445312 C 29.914062 16.628906 46.84375 12.578125 53.421875 21.265625 L 49.457031 24.050781 C 43.730469 18.066406 33.539062 23.625 31.761719 30.445312 L 38.5 30.445312 L 37.488281 34.410156 L 30.847656 34.410156 L 26.472656 52.863281 L 21.328125 52.863281 L 25.703125 34.410156 L 18.96875 34.410156 Z M 19.890625 30.445312 " clip-rule="nonzero"/></clipPath><clipPath id="274d5eb625"><path d="M 60.316406 30.421875 L 79.289062 30.421875 L 79.289062 53 L 60.316406 53 Z M 60.316406 30.421875 " clip-rule="nonzero"/></clipPath><clipPath id="8141f62afe"><path d="M 65.890625 30.445312 L 70.949219 30.445312 L 70.523438 32.464844 C 72.628906 30.773438 73.054688 30.445312 75.242188 30.445312 L 79.28125 30.445312 L 78.355469 34.410156 L 73.976562 34.410156 C 71.871094 34.410156 69.769531 35.507812 69.257812 37.523438 L 65.632812 52.847656 L 60.5 52.847656 Z M 65.890625 30.445312 " clip-rule="nonzero"/></clipPath><clipPath id="950989fa6e"><path d="M 77.304688 30.421875 L 100.523438 30.421875 L 100.523438 53.074219 L 77.304688 53.074219 Z M 77.304688 30.421875 " clip-rule="nonzero"/></clipPath><clipPath id="145b9ce709"><path d="M 81.054688 30.445312 L 86.199219 30.445312 L 82.832031 44.589844 C 81.480469 50.320312 90.578125 50.320312 91.929688 44.507812 L 95.296875 30.445312 L 100.441406 30.445312 L 95.128906 52.847656 L 89.984375 52.847656 L 90.324219 51.242188 C 81.980469 55.878906 76.25 50.816406 77.601562 45.003906 Z M 81.054688 30.445312 " clip-rule="nonzero"/></clipPath><clipPath id="f9a1587cb0"><path d="M 98.542969 30.136719 L 120.628906 30.136719 L 120.628906 53.640625 L 98.542969 53.640625 Z M 98.542969 30.136719 " clip-rule="nonzero"/></clipPath><clipPath id="36b2599d0d"><path d="M 101.523438 36.261719 C 102.960938 32.378906 107.847656 30.191406 112.140625 30.191406 C 117.03125 30.191406 121.15625 32.890625 120.484375 38.195312 L 115.171875 38.195312 C 115.511719 35.335938 113.152344 34.824219 110.878906 34.65625 C 107.421875 34.824219 102.621094 38.363281 110.039062 38.195312 C 115.511719 38.195312 119.902344 40.128906 118.710938 45.273438 C 116.863281 51.425781 110.621094 53.273438 106.414062 53.359375 C 102.449219 53.191406 97.898438 51.257812 98.738281 44.175781 L 103.542969 44.175781 C 103.542969 47.375 104.980469 48.726562 107.507812 48.726562 C 115.339844 48.554688 115.765625 42.65625 109.027344 42.488281 C 102.714844 42.402344 100.015625 41.390625 101.535156 36.246094 " clip-rule="nonzero"/></clipPath><clipPath id="dc782f534d"><path d="M 118.363281 30.421875 L 129.40625 30.421875 L 129.40625 53 L 118.363281 53 Z M 118.363281 30.421875 " clip-rule="nonzero"/></clipPath><clipPath id="85236257a4"><path d="M 124.023438 30.445312 L 129.167969 30.445312 L 123.78125 52.863281 L 118.636719 52.863281 Z M 124.023438 30.445312 " clip-rule="nonzero"/></clipPath><clipPath id="a57636ffc1"><path d="M 39.648438 29.570312 L 61.734375 29.570312 L 61.734375 53.355469 L 39.648438 53.355469 Z M 39.648438 29.570312 " clip-rule="nonzero"/></clipPath><clipPath id="626e31fbd4"><path d="M 61.171875 41.816406 C 59.152344 48.554688 54.6875 52.847656 47.695312 53.105469 L 48.789062 48.472656 C 56.121094 48.386719 59.660156 34.484375 52.15625 34.398438 C 45.75 34.570312 41.796875 48.386719 48.789062 48.472656 L 47.695312 53.105469 C 42.976562 53.019531 38.511719 49.308594 40.117188 41.816406 C 43.144531 26.738281 64.296875 24.71875 61.183594 41.816406 " clip-rule="nonzero"/></clipPath><clipPath id="639e97eae4"><path d="M 137.050781 10.601562 L 145.546875 10.601562 L 145.546875 19 L 137.050781 19 Z M 137.050781 10.601562 " clip-rule="nonzero"/></clipPath><clipPath id="505069da37"><path d="M 141.320312 11.167969 C 142.316406 11.167969 143.15625 11.523438 143.863281 12.226562 C 144.566406 12.933594 144.90625 13.773438 144.90625 14.757812 C 144.90625 15.753906 144.554688 16.605469 143.863281 17.3125 C 143.167969 18.015625 142.316406 18.371094 141.320312 18.371094 C 140.324219 18.371094 139.472656 18.015625 138.777344 17.3125 C 138.085938 16.605469 137.730469 15.753906 137.730469 14.757812 C 137.730469 13.773438 138.085938 12.921875 138.777344 12.226562 C 139.472656 11.535156 140.324219 11.167969 141.308594 11.167969 Z M 145.503906 14.757812 C 145.503906 13.613281 145.089844 12.628906 144.289062 11.824219 C 143.484375 11.023438 142.488281 10.609375 141.332031 10.609375 C 140.175781 10.609375 139.203125 11.011719 138.402344 11.824219 C 137.597656 12.640625 137.183594 13.613281 137.183594 14.757812 C 137.183594 15.898438 137.585938 16.898438 138.390625 17.710938 C 139.191406 18.527344 140.175781 18.941406 141.332031 18.941406 C 142.488281 18.941406 143.472656 18.527344 144.289062 17.710938 C 145.101562 16.898438 145.503906 15.914062 145.503906 14.757812 Z M 139.640625 12.457031 L 139.640625 17.03125 L 140.445312 17.03125 L 140.445312 15.230469 L 141.089844 15.230469 C 141.527344 15.230469 141.832031 15.28125 142 15.378906 C 142.292969 15.546875 142.4375 15.898438 142.4375 16.421875 L 142.4375 16.789062 L 142.449219 16.933594 C 142.449219 16.957031 142.449219 16.96875 142.464844 16.984375 C 142.476562 16.996094 142.476562 17.019531 142.476562 17.03125 L 143.21875 17.03125 L 143.191406 16.96875 C 143.179688 16.933594 143.167969 16.847656 143.15625 16.726562 C 143.144531 16.605469 143.144531 16.496094 143.144531 16.386719 L 143.144531 16.058594 C 143.144531 15.828125 143.058594 15.597656 142.902344 15.351562 C 142.742188 15.109375 142.476562 14.964844 142.109375 14.902344 C 142.390625 14.855469 142.621094 14.78125 142.765625 14.683594 C 143.070312 14.488281 143.21875 14.183594 143.21875 13.785156 C 143.21875 13.210938 142.984375 12.824219 142.5 12.628906 C 142.230469 12.519531 141.820312 12.457031 141.246094 12.457031 Z M 142.4375 13.855469 C 142.4375 14.199219 142.28125 14.441406 141.964844 14.5625 C 141.792969 14.636719 141.539062 14.660156 141.1875 14.660156 L 140.445312 14.660156 L 140.445312 13.03125 L 141.148438 13.03125 C 141.597656 13.03125 141.941406 13.089844 142.148438 13.199219 C 142.355469 13.308594 142.449219 13.527344 142.449219 13.871094 " clip-rule="nonzero"/></clipPath></defs><g clip-path="url(#9e976014b8)"><g clip-path="url(#5ef5e5d320)"><path fill="#ffffff" d="M -5.089844 1.257812 L 155.171875 1.257812 L 155.171875 73.742188 L -5.089844 73.742188 Z M -5.089844 1.257812 " fill-opacity="1" fill-rule="nonzero"/></g></g><g clip-path="url(#62bdb1bfde)"><g clip-path="url(#2fe4b04918)"><path fill="#ffffff" d="M -5.089844 1.257812 L 155.171875 1.257812 L 155.171875 73.742188 L -5.089844 73.742188 Z M -5.089844 1.257812 " fill-opacity="1" fill-rule="nonzero"/></g></g><g clip-path="url(#90ad53d60e)"><g clip-path="url(#beda236933)"><path fill="#ffffff" d="M -5.089844 1.257812 L 155.171875 1.257812 L 155.171875 73.742188 L -5.089844 73.742188 Z M -5.089844 1.257812 " fill-opacity="1" fill-rule="nonzero"/></g></g><g clip-path="url(#f74f35a0a9)"><g clip-path="url(#9fc4a6e4f9)"><path fill="#ffffff" d="M -5.089844 1.257812 L 155.171875 1.257812 L 155.171875 73.742188 L -5.089844 73.742188 Z M -5.089844 1.257812 " fill-opacity="1" fill-rule="nonzero"/></g></g><g clip-path="url(#1e390afc79)"><g clip-path="url(#01bb7b6503)"><path fill="#ffffff" d="M -5.089844 1.257812 L 155.171875 1.257812 L 155.171875 73.742188 L -5.089844 73.742188 Z M -5.089844 1.257812 " fill-opacity="1" fill-rule="nonzero"/></g></g><g clip-path="url(#274d5eb625)"><g clip-path="url(#8141f62afe)"><path fill="#ffffff" d="M -5.089844 1.257812 L 155.171875 1.257812 L 155.171875 73.742188 L -5.089844 73.742188 Z M -5.089844 1.257812 " fill-opacity="1" fill-rule="nonzero"/></g></g><g clip-path="url(#950989fa6e)"><g clip-path="url(#145b9ce709)"><path fill="#ffffff" d="M -5.089844 1.257812 L 155.171875 1.257812 L 155.171875 73.742188 L -5.089844 73.742188 Z M -5.089844 1.257812 " fill-opacity="1" fill-rule="nonzero"/></g></g><g clip-path="url(#f9a1587cb0)"><g clip-path="url(#36b2599d0d)"><path fill="#ffffff" d="M -5.089844 1.257812 L 155.171875 1.257812 L 155.171875 73.742188 L -5.089844 73.742188 Z M -5.089844 1.257812 " fill-opacity="1" fill-rule="nonzero"/></g></g><g clip-path="url(#dc782f534d)"><g clip-path="url(#85236257a4)"><path fill="#ffffff" d="M -5.089844 1.257812 L 155.171875 1.257812 L 155.171875 73.742188 L -5.089844 73.742188 Z M -5.089844 1.257812 " fill-opacity="1" fill-rule="nonzero"/></g></g><g clip-path="url(#a57636ffc1)"><g clip-path="url(#626e31fbd4)"><path fill="#ffffff" d="M -5.089844 1.257812 L 155.171875 1.257812 L 155.171875 73.742188 L -5.089844 73.742188 Z M -5.089844 1.257812 " fill-opacity="1" fill-rule="nonzero"/></g></g><g clip-path="url(#639e97eae4)"><g clip-path="url(#505069da37)"><path fill="#ffffff" d="M -5.089844 1.257812 L 155.171875 1.257812 L 155.171875 73.742188 L -5.089844 73.742188 Z M -5.089844 1.257812 " fill-opacity="1" fill-rule="nonzero"/></g></g></svg>